<?xml version="1.0" encoding="utf-8"?>
<svg viewBox="0 0 220 40" preserveAspectRatio="xMinYMin" width="220px" height="40px" alt="Model Graph Browser logo" xmlns="http://www.w3.org/2000/svg">
  <g transform="matrix(1, 0, 0, 1, -0.922996, -1)">
    <path d="M 32.432 5 C 29.91 5 27.86 7.05 27.86 9.572 C 27.86 10.472 28.116 11.306 28.566 12.016 L 25.938 14.703 C 24.579 13.638 22.866 13 21 13 C 19.932 13 18.91 13.209 17.979 13.591 L 17.144 12.488 C 16.722 11.916 15.966 11.753 15.466 12.131 C 14.96 12.503 14.888 13.275 15.3 13.847 L 15.997 14.759 C 14.169 16.225 13 18.475 13 21 C 13 21.709 13.094 22.397 13.266 23.053 L 12.469 23.466 C 11.869 23.759 11.585 24.466 11.825 25.038 C 12.066 25.609 12.76 25.838 13.354 25.553 L 14.154 25.138 C 15.285 27.006 17.16 28.375 19.369 28.831 L 19.182 31.113 C 17.922 31.472 17 32.628 17 34 C 17 35.656 18.344 37 20 37 C 21.657 37 23 35.656 23 34 C 23 32.759 22.247 31.697 21.175 31.241 L 21.36 28.994 C 23.916 28.881 26.163 27.566 27.544 25.6 L 29.682 27.056 C 30.254 27.45 31.004 27.341 31.338 26.813 C 31.672 26.278 31.479 25.528 30.9 25.144 L 28.582 23.566 C 28.854 22.759 29 21.897 29 21 C 29 19.269 28.45 17.666 27.516 16.359 L 30.232 13.588 C 30.882 13.944 31.632 14.153 32.432 14.153 C 34.954 14.153 37.004 12.103 37.004 9.581 C 37.004 7.059 34.954 5 32.432 5 Z M 21.5 34 C 21.5 34.828 20.829 35.5 20 35.5 C 19.172 35.5 18.5 34.828 18.5 34 C 18.5 33.172 19.172 32.5 20 32.5 C 20.829 32.5 21.5 33.172 21.5 34 Z M 21 25 C 18.791 25 17 23.209 17 21 C 17 18.791 18.791 17 21 17 C 23.21 17 25 18.791 25 21 C 25 23.209 23.213 25 21 25 Z M 32.432 12 C 31.088 12 30.004 10.916 30.004 9.572 C 30.004 8.228 31.088 7.144 32.432 7.144 C 33.775 7.144 34.86 8.228 34.86 9.572 C 34.86 10.916 33.775 12 32.432 12 Z M 33.15 27.259 C 34.488 25.922 36.66 25.922 37.997 27.259 C 38.666 27.928 39 28.806 39 29.684 C 39 30.563 38.666 31.438 37.997 32.109 C 36.66 33.447 34.488 33.447 33.15 32.109 C 31.813 30.769 31.813 28.6 33.15 27.259 M 13 5.072 C 14.894 5.072 16.429 6.606 16.429 8.5 C 16.429 10.394 14.894 11.928 13 11.928 C 11.107 11.928 9.572 10.394 9.572 8.5 C 9.572 6.606 11.107 5.072 13 5.072 M 8 24 C 9.657 24 11 25.344 11 27 C 11 28.656 9.657 30 8 30 C 6.344 30 5 28.656 5 27 C 5 25.344 6.344 24 8 24" style="fill: rgb(255, 255, 255);"/>
    <g transform="matrix(1, 0, 0, 1, -17, 1.295)">
      <path d="M 76.721 15.652 L 72.841 23.066 L 68.975 15.639 L 68.975 23.864 L 66.832 23.864 L 66.832 12.684 L 69.807 12.684 L 72.868 18.687 L 75.936 12.684 L 78.911 12.684 L 78.911 23.864 L 76.721 23.864 L 76.721 15.652 Z M 81.391 19.712 C 81.391 19.104 81.507 18.536 81.737 18.008 C 81.963 17.484 82.276 17.028 82.675 16.637 C 83.074 16.246 83.547 15.94 84.093 15.719 C 84.634 15.497 85.213 15.386 85.83 15.386 C 86.446 15.386 87.027 15.497 87.573 15.719 C 88.115 15.94 88.585 16.246 88.984 16.637 C 89.383 17.028 89.699 17.484 89.929 18.008 C 90.155 18.536 90.268 19.104 90.268 19.712 C 90.268 20.319 90.155 20.888 89.929 21.415 C 89.699 21.939 89.383 22.394 88.984 22.78 C 88.585 23.161 88.115 23.465 87.573 23.691 C 87.027 23.913 86.446 24.024 85.83 24.024 C 85.213 24.024 84.634 23.913 84.093 23.691 C 83.547 23.465 83.074 23.161 82.675 22.78 C 82.276 22.394 81.963 21.939 81.737 21.415 C 81.507 20.888 81.391 20.319 81.391 19.712 Z M 85.83 22.121 C 86.468 22.121 87.012 21.888 87.46 21.422 C 87.909 20.951 88.132 20.382 88.132 19.712 C 88.132 19.028 87.909 18.454 87.46 17.988 C 87.012 17.518 86.468 17.283 85.83 17.283 C 85.191 17.283 84.648 17.518 84.199 17.988 C 83.756 18.454 83.534 19.028 83.534 19.712 C 83.534 20.382 83.756 20.951 84.199 21.422 C 84.648 21.888 85.191 22.121 85.83 22.121 Z M 101.043 23.864 L 98.886 23.864 L 98.886 23.179 C 98.558 23.445 98.192 23.645 97.788 23.778 C 97.38 23.911 96.958 23.977 96.524 23.977 C 95.938 23.977 95.388 23.864 94.873 23.638 C 94.354 23.416 93.904 23.114 93.523 22.733 C 93.137 22.347 92.834 21.894 92.617 21.375 C 92.4 20.852 92.291 20.293 92.291 19.698 C 92.291 19.099 92.402 18.54 92.624 18.021 C 92.85 17.498 93.154 17.045 93.536 16.664 C 93.922 16.278 94.376 15.976 94.9 15.759 C 95.428 15.541 95.991 15.433 96.59 15.433 C 96.994 15.433 97.389 15.488 97.775 15.599 C 98.165 15.71 98.524 15.872 98.853 16.085 L 98.853 12.684 L 101.043 12.205 L 101.043 23.864 Z M 94.448 19.698 C 94.448 20.368 94.682 20.936 95.153 21.402 C 95.619 21.872 96.193 22.107 96.877 22.107 C 97.28 22.107 97.651 22.039 97.988 21.901 C 98.321 21.763 98.609 21.566 98.853 21.309 L 98.853 18.068 C 98.622 17.824 98.334 17.631 97.988 17.489 C 97.642 17.351 97.271 17.283 96.877 17.283 C 96.184 17.283 95.606 17.516 95.14 17.981 C 94.678 18.443 94.448 19.015 94.448 19.698 Z M 109.785 21.515 L 111.222 22.826 C 110.712 23.243 110.189 23.547 109.652 23.738 C 109.115 23.929 108.516 24.024 107.855 24.024 C 107.225 24.024 106.637 23.913 106.092 23.691 C 105.541 23.465 105.067 23.161 104.667 22.78 C 104.268 22.394 103.955 21.939 103.729 21.415 C 103.498 20.888 103.383 20.319 103.383 19.712 C 103.383 19.117 103.491 18.556 103.709 18.028 C 103.927 17.5 104.228 17.041 104.614 16.65 C 104.995 16.264 105.451 15.958 105.978 15.732 C 106.506 15.51 107.068 15.399 107.662 15.399 C 108.248 15.399 108.793 15.514 109.299 15.745 C 109.805 15.972 110.242 16.282 110.61 16.677 C 110.978 17.072 111.267 17.542 111.475 18.088 C 111.68 18.638 111.781 19.233 111.781 19.871 L 111.781 20.444 L 105.586 20.444 C 105.737 20.967 106.025 21.389 106.451 21.708 C 106.877 22.028 107.376 22.187 107.948 22.187 C 108.312 22.187 108.654 22.129 108.973 22.014 C 109.293 21.894 109.563 21.728 109.785 21.515 Z M 107.615 17.203 C 107.114 17.203 106.684 17.356 106.324 17.662 C 105.96 17.963 105.71 18.369 105.572 18.88 L 109.645 18.88 C 109.507 18.392 109.255 17.99 108.887 17.675 C 108.519 17.361 108.095 17.203 107.615 17.203 Z M 114.127 12.684 L 116.309 12.205 L 116.309 23.864 L 114.127 23.864 L 114.127 12.684 Z M 130.261 17.589 L 130.261 18.288 C 130.261 19.108 130.121 19.873 129.842 20.583 C 129.558 21.289 129.168 21.894 128.671 22.4 C 128.178 22.906 127.586 23.305 126.894 23.598 C 126.202 23.891 125.456 24.037 124.658 24.037 C 123.829 24.037 123.05 23.889 122.322 23.591 C 121.599 23.294 120.974 22.888 120.445 22.374 C 119.922 21.855 119.505 21.244 119.194 20.544 C 118.884 19.838 118.728 19.081 118.728 18.274 C 118.728 17.467 118.881 16.71 119.188 16.005 C 119.49 15.304 119.904 14.694 120.432 14.175 C 120.96 13.66 121.586 13.254 122.309 12.957 C 123.032 12.66 123.804 12.511 124.625 12.511 C 125.552 12.511 126.426 12.697 127.247 13.07 C 128.063 13.443 128.737 13.953 129.27 14.601 L 127.659 16.085 C 127.265 15.619 126.81 15.26 126.295 15.007 C 125.776 14.758 125.22 14.634 124.625 14.634 C 124.123 14.634 123.658 14.727 123.227 14.914 C 122.797 15.1 122.425 15.355 122.109 15.679 C 121.794 16.003 121.55 16.386 121.377 16.83 C 121.2 17.269 121.111 17.75 121.111 18.274 C 121.111 18.798 121.202 19.281 121.384 19.725 C 121.566 20.173 121.816 20.559 122.136 20.883 C 122.455 21.211 122.834 21.469 123.274 21.655 C 123.718 21.841 124.19 21.934 124.691 21.934 C 125.476 21.934 126.155 21.715 126.728 21.276 C 127.296 20.841 127.649 20.282 127.786 19.599 L 124.478 19.599 L 124.478 17.589 L 130.261 17.589 Z M 134.884 23.864 L 132.701 23.864 L 132.701 15.546 L 134.884 15.546 L 134.884 16.451 C 135.15 16.091 135.473 15.819 135.855 15.632 C 136.232 15.446 136.649 15.353 137.106 15.353 C 137.319 15.361 137.496 15.379 137.639 15.406 C 137.785 15.433 137.912 15.479 138.018 15.546 L 138.018 17.462 C 137.858 17.387 137.683 17.329 137.492 17.289 C 137.297 17.254 137.1 17.236 136.9 17.236 C 136.474 17.236 136.082 17.343 135.722 17.555 C 135.367 17.768 135.087 18.077 134.884 18.481 L 134.884 23.864 Z M 142.595 24.011 C 141.699 24.011 140.969 23.773 140.405 23.299 C 139.842 22.824 139.56 22.209 139.56 21.455 C 139.56 20.665 139.862 20.046 140.465 19.599 C 141.073 19.151 141.909 18.926 142.974 18.926 C 143.316 18.926 143.657 18.953 143.999 19.006 C 144.341 19.059 144.676 19.139 145.004 19.246 L 145.004 18.66 C 145.004 18.181 144.855 17.817 144.558 17.569 C 144.261 17.325 143.824 17.203 143.247 17.203 C 142.897 17.203 142.515 17.258 142.102 17.369 C 141.694 17.484 141.228 17.657 140.705 17.888 L 139.906 16.278 C 140.558 15.98 141.19 15.757 141.803 15.606 C 142.415 15.459 143.019 15.386 143.613 15.386 C 144.731 15.386 145.603 15.654 146.228 16.191 C 146.85 16.728 147.16 17.487 147.16 18.467 L 147.16 23.864 L 145.004 23.864 L 145.004 23.292 C 144.654 23.536 144.283 23.716 143.892 23.831 C 143.506 23.951 143.074 24.011 142.595 24.011 Z M 141.65 21.402 C 141.65 21.721 141.787 21.974 142.062 22.161 C 142.342 22.347 142.71 22.44 143.167 22.44 C 143.531 22.44 143.864 22.396 144.165 22.307 C 144.467 22.219 144.747 22.087 145.004 21.914 L 145.004 20.67 C 144.738 20.563 144.458 20.486 144.165 20.437 C 143.872 20.388 143.566 20.364 143.247 20.364 C 142.746 20.364 142.355 20.457 142.076 20.643 C 141.792 20.83 141.65 21.083 141.65 21.402 Z M 152.005 27.205 L 149.822 27.205 L 149.822 15.546 L 151.978 15.546 L 151.978 16.231 C 152.306 15.965 152.672 15.765 153.076 15.632 C 153.48 15.499 153.901 15.433 154.34 15.433 C 154.926 15.433 155.476 15.544 155.991 15.765 C 156.51 15.992 156.96 16.296 157.342 16.677 C 157.723 17.058 158.025 17.511 158.247 18.035 C 158.464 18.558 158.573 19.117 158.573 19.712 C 158.573 20.306 158.46 20.865 158.234 21.389 C 158.012 21.912 157.71 22.365 157.328 22.746 C 156.942 23.128 156.485 23.43 155.958 23.651 C 155.434 23.869 154.873 23.977 154.274 23.977 C 153.87 23.977 153.473 23.922 153.083 23.811 C 152.697 23.696 152.337 23.532 152.005 23.319 L 152.005 27.205 Z M 153.988 17.303 C 153.593 17.303 153.224 17.369 152.883 17.502 C 152.546 17.635 152.253 17.828 152.005 18.081 L 152.005 21.355 C 152.239 21.59 152.53 21.777 152.876 21.914 C 153.222 22.052 153.593 22.121 153.988 22.121 C 154.671 22.121 155.245 21.89 155.711 21.429 C 156.182 20.967 156.417 20.395 156.417 19.712 C 156.417 19.028 156.179 18.456 155.705 17.995 C 155.23 17.534 154.658 17.303 153.988 17.303 Z M 163.096 23.864 L 160.913 23.864 L 160.913 12.684 L 163.096 12.205 L 163.096 16.198 C 163.416 15.932 163.771 15.73 164.161 15.592 C 164.552 15.455 164.976 15.386 165.432 15.386 C 166.39 15.386 167.178 15.694 167.795 16.311 C 168.411 16.928 168.72 17.72 168.72 18.687 L 168.72 23.864 L 166.53 23.864 L 166.53 19.006 C 166.53 18.487 166.375 18.068 166.064 17.748 C 165.749 17.429 165.33 17.269 164.806 17.269 C 164.447 17.269 164.121 17.341 163.828 17.482 C 163.535 17.629 163.292 17.835 163.096 18.101 L 163.096 23.864 Z" style="white-space: pre; fill: rgb(255, 255, 255);"/>
      <path d="M 171.749 23.864 L 171.749 12.684 L 176.281 12.684 C 177.359 12.684 178.217 12.946 178.856 13.469 C 179.495 13.988 179.814 14.685 179.814 15.559 C 179.814 16.136 179.661 16.637 179.355 17.063 C 179.053 17.489 178.637 17.813 178.104 18.035 C 178.774 18.239 179.304 18.576 179.695 19.046 C 180.081 19.521 180.274 20.078 180.274 20.717 C 180.274 21.675 179.925 22.44 179.229 23.012 C 178.532 23.58 177.614 23.864 176.474 23.864 L 171.749 23.864 Z M 176.221 13.756 L 172.98 13.756 L 172.98 17.555 L 176.221 17.555 C 176.944 17.555 177.521 17.382 177.951 17.036 C 178.381 16.69 178.597 16.229 178.597 15.652 C 178.597 15.08 178.381 14.621 177.951 14.275 C 177.521 13.929 176.944 13.756 176.221 13.756 Z M 172.98 22.793 L 176.381 22.793 C 177.179 22.793 177.82 22.602 178.304 22.221 C 178.787 21.835 179.029 21.322 179.029 20.683 C 179.029 20.044 178.787 19.534 178.304 19.153 C 177.82 18.771 177.179 18.58 176.381 18.58 L 172.98 18.58 L 172.98 22.793 Z M 184.198 23.864 L 183.013 23.864 L 183.013 15.865 L 184.198 15.865 L 184.198 16.996 C 184.434 16.579 184.742 16.258 185.123 16.032 C 185.505 15.801 185.942 15.685 186.434 15.685 C 186.58 15.685 186.714 15.694 186.833 15.712 C 186.949 15.725 187.066 15.754 187.186 15.799 L 187.186 16.883 C 187.044 16.843 186.905 16.81 186.767 16.784 C 186.63 16.757 186.492 16.744 186.354 16.744 C 185.862 16.744 185.429 16.883 185.056 17.163 C 184.684 17.447 184.398 17.855 184.198 18.387 L 184.198 23.864 Z M 188.597 19.858 C 188.597 19.281 188.703 18.738 188.916 18.228 C 189.129 17.717 189.42 17.276 189.788 16.903 C 190.156 16.531 190.589 16.238 191.086 16.025 C 191.587 15.812 192.119 15.705 192.683 15.705 C 193.251 15.705 193.781 15.812 194.273 16.025 C 194.771 16.238 195.203 16.531 195.571 16.903 C 195.935 17.276 196.223 17.717 196.436 18.228 C 196.649 18.738 196.756 19.281 196.756 19.858 C 196.756 20.444 196.649 20.991 196.436 21.502 C 196.223 22.012 195.935 22.453 195.571 22.826 C 195.203 23.199 194.771 23.492 194.273 23.705 C 193.781 23.918 193.251 24.024 192.683 24.024 C 192.119 24.024 191.587 23.918 191.086 23.705 C 190.589 23.492 190.156 23.199 189.788 22.826 C 189.42 22.453 189.129 22.012 188.916 21.502 C 188.703 20.991 188.597 20.444 188.597 19.858 Z M 192.683 22.973 C 193.091 22.973 193.473 22.893 193.828 22.733 C 194.182 22.573 194.491 22.352 194.753 22.067 C 195.014 21.783 195.22 21.453 195.371 21.076 C 195.518 20.699 195.591 20.293 195.591 19.858 C 195.591 19.419 195.518 19.011 195.371 18.634 C 195.22 18.256 195.014 17.928 194.753 17.649 C 194.491 17.374 194.182 17.156 193.828 16.996 C 193.473 16.837 193.091 16.757 192.683 16.757 C 192.279 16.757 191.9 16.837 191.545 16.996 C 191.186 17.156 190.877 17.374 190.62 17.649 C 190.358 17.928 190.149 18.256 189.994 18.634 C 189.839 19.011 189.761 19.419 189.761 19.858 C 189.761 20.293 189.837 20.699 189.988 21.076 C 190.134 21.453 190.338 21.783 190.6 22.067 C 190.862 22.352 191.174 22.573 191.538 22.733 C 191.898 22.893 192.279 22.973 192.683 22.973 Z M 203.858 17.462 L 201.862 23.864 L 200.711 23.864 L 198.461 15.865 L 199.626 15.865 L 201.35 22.254 L 203.346 15.865 L 204.397 15.865 L 206.381 22.254 L 208.124 15.865 L 209.242 15.865 L 206.973 23.864 L 205.835 23.864 L 203.858 17.462 Z M 210.654 22.76 L 211.373 21.994 C 211.732 22.336 212.138 22.6 212.591 22.786 C 213.043 22.973 213.505 23.066 213.975 23.066 C 214.614 23.066 215.135 22.933 215.539 22.666 C 215.942 22.4 216.145 22.054 216.145 21.628 C 216.145 21.287 216.025 21.018 215.785 20.823 C 215.546 20.623 215.17 20.488 214.661 20.417 L 213.27 20.224 C 212.471 20.104 211.879 19.867 211.493 19.512 C 211.102 19.157 210.907 18.675 210.907 18.068 C 210.907 17.398 211.189 16.841 211.752 16.398 C 212.32 15.954 213.039 15.732 213.909 15.732 C 214.485 15.732 215.031 15.819 215.546 15.992 C 216.065 16.16 216.568 16.426 217.056 16.79 L 216.437 17.589 C 215.989 17.291 215.554 17.068 215.133 16.917 C 214.711 16.766 214.283 16.69 213.849 16.69 C 213.303 16.69 212.857 16.815 212.511 17.063 C 212.165 17.307 211.992 17.627 211.992 18.021 C 211.992 18.359 212.109 18.62 212.345 18.807 C 212.58 18.993 212.959 19.124 213.483 19.199 L 214.867 19.392 C 215.665 19.499 216.264 19.736 216.664 20.104 C 217.063 20.472 217.263 20.958 217.263 21.562 C 217.263 21.903 217.18 22.227 217.016 22.533 C 216.852 22.835 216.624 23.094 216.331 23.312 C 216.038 23.53 215.694 23.7 215.299 23.824 C 214.904 23.949 214.478 24.011 214.022 24.011 C 213.36 24.011 212.741 23.9 212.165 23.678 C 211.583 23.46 211.08 23.154 210.654 22.76 Z M 225.676 22.234 L 226.408 23.019 C 225.96 23.347 225.495 23.593 225.011 23.758 C 224.528 23.926 223.997 24.011 223.42 24.011 C 222.848 24.011 222.309 23.904 221.803 23.691 C 221.297 23.478 220.861 23.185 220.492 22.813 C 220.124 22.44 219.833 22.001 219.62 21.495 C 219.407 20.989 219.301 20.444 219.301 19.858 C 219.301 19.281 219.405 18.742 219.614 18.241 C 219.823 17.74 220.102 17.303 220.452 16.93 C 220.803 16.557 221.22 16.264 221.703 16.051 C 222.187 15.839 222.702 15.732 223.247 15.732 C 223.78 15.732 224.277 15.839 224.738 16.051 C 225.204 16.264 225.603 16.557 225.936 16.93 C 226.273 17.303 226.539 17.74 226.734 18.241 C 226.934 18.742 227.034 19.281 227.034 19.858 L 227.034 20.224 L 220.466 20.224 C 220.55 21.009 220.876 21.664 221.444 22.187 C 222.007 22.711 222.682 22.973 223.467 22.973 C 223.884 22.973 224.29 22.908 224.685 22.78 C 225.08 22.651 225.41 22.469 225.676 22.234 Z M 223.214 16.77 C 222.522 16.77 221.923 17.005 221.417 17.476 C 220.911 17.946 220.605 18.547 220.499 19.279 L 225.849 19.279 C 225.743 18.578 225.441 17.986 224.944 17.502 C 224.452 17.014 223.875 16.77 223.214 16.77 Z M 230.858 23.864 L 229.673 23.864 L 229.673 15.865 L 230.858 15.865 L 230.858 16.996 C 231.093 16.579 231.401 16.258 231.783 16.032 C 232.164 15.801 232.601 15.685 233.094 15.685 C 233.24 15.685 233.373 15.694 233.493 15.712 C 233.608 15.725 233.726 15.754 233.846 15.799 L 233.846 16.883 C 233.704 16.843 233.564 16.81 233.427 16.784 C 233.289 16.757 233.152 16.744 233.014 16.744 C 232.521 16.744 232.089 16.883 231.716 17.163 C 231.344 17.447 231.057 17.855 230.858 18.387 L 230.858 23.864 Z" style="white-space: pre; fill: rgb(255, 255, 255);"/>
    </g>
  </g>
</svg>